<svg width="24" height="24" viewBox="0 0 24 24" fill="none" xmlns="http://www.w3.org/2000/svg">
<path d="M8.00006 5.75C7.59006 5.75 7.25006 5.41 7.25006 5V2C7.25006 1.59 7.59006 1.25 8.00006 1.25C8.41006 1.25 8.75006 1.59 8.75006 2V5C8.75006 5.41 8.41006 5.75 8.00006 5.75Z" fill="#A0A6B1" stroke="#A0A6B1" stroke-width="0.2"/>
<path d="M16 5.75C15.59 5.75 15.25 5.41 15.25 5V2C15.25 1.59 15.59 1.25 16 1.25C16.41 1.25 16.75 1.59 16.75 2V5C16.75 5.41 16.41 5.75 16 5.75Z" fill="#A0A6B1" stroke="#A0A6B1" stroke-width="0.2"/>
<path d="M8.5 14.5C8.37 14.5 8.24 14.47 8.12 14.42C7.99 14.37 7.89 14.3 7.79 14.21C7.61 14.02 7.5 13.77 7.5 13.5C7.5 13.37 7.53 13.24 7.58 13.12C7.63 13 7.7 12.89 7.79 12.79C7.89 12.7 7.99 12.63 8.12 12.58C8.48 12.43 8.93 12.51 9.21 12.79C9.39 12.98 9.5 13.24 9.5 13.5C9.5 13.56 9.49 13.63 9.48 13.7C9.47 13.76 9.45 13.82 9.42 13.88C9.4 13.94 9.37 14 9.33 14.06C9.3 14.11 9.25 14.16 9.21 14.21C9.02 14.39 8.76 14.5 8.5 14.5Z" fill="#A0A6B1" stroke="#A0A6B1" stroke-width="0.2"/>
<path d="M12.0001 14.5C11.8701 14.5 11.7401 14.47 11.6201 14.42C11.4901 14.37 11.3901 14.3 11.2901 14.21C11.1101 14.02 11.0001 13.77 11.0001 13.5C11.0001 13.37 11.0301 13.24 11.0801 13.12C11.1301 13 11.2001 12.89 11.2901 12.79C11.3901 12.7 11.4901 12.63 11.6201 12.58C11.9801 12.42 12.4301 12.51 12.7101 12.79C12.8901 12.98 13.0001 13.24 13.0001 13.5C13.0001 13.56 12.9901 13.63 12.9801 13.7C12.9701 13.76 12.9501 13.82 12.9201 13.88C12.9001 13.94 12.8701 14 12.8301 14.06C12.8001 14.11 12.7501 14.16 12.7101 14.21C12.5201 14.39 12.2601 14.5 12.0001 14.5Z" fill="#A0A6B1" stroke="#A0A6B1" stroke-width="0.2"/>
<path d="M15.4999 14.5C15.3699 14.5 15.2399 14.47 15.1199 14.42C14.9899 14.37 14.8899 14.3 14.7899 14.21C14.7499 14.16 14.7099 14.11 14.6699 14.06C14.6299 14 14.5999 13.94 14.5799 13.88C14.5499 13.82 14.5299 13.76 14.5199 13.7C14.5099 13.63 14.4999 13.56 14.4999 13.5C14.4999 13.24 14.6099 12.98 14.7899 12.79C14.8899 12.7 14.9899 12.63 15.1199 12.58C15.4899 12.42 15.9299 12.51 16.2099 12.79C16.3899 12.98 16.4999 13.24 16.4999 13.5C16.4999 13.56 16.4899 13.63 16.4799 13.7C16.4699 13.76 16.4499 13.82 16.4199 13.88C16.3999 13.94 16.3699 14 16.3299 14.06C16.2999 14.11 16.2499 14.16 16.2099 14.21C16.0199 14.39 15.7599 14.5 15.4999 14.5Z" fill="#A0A6B1" stroke="#A0A6B1" stroke-width="0.2"/>
<path d="M8.5 18C8.37 18 8.24 17.97 8.12 17.92C8 17.87 7.89 17.8 7.79 17.71C7.61 17.52 7.5 17.26 7.5 17C7.5 16.87 7.53 16.74 7.58 16.62C7.63 16.49 7.7 16.38 7.79 16.29C8.16 15.92 8.84 15.92 9.21 16.29C9.39 16.48 9.5 16.74 9.5 17C9.5 17.26 9.39 17.52 9.21 17.71C9.02 17.89 8.76 18 8.5 18Z" fill="#A0A6B1" stroke="#A0A6B1" stroke-width="0.2"/>
<path d="M12.0001 18C11.7401 18 11.4801 17.89 11.2901 17.71C11.1101 17.52 11.0001 17.26 11.0001 17C11.0001 16.87 11.0301 16.74 11.0801 16.62C11.1301 16.49 11.2001 16.38 11.2901 16.29C11.6601 15.92 12.3401 15.92 12.7101 16.29C12.8001 16.38 12.8701 16.49 12.9201 16.62C12.9701 16.74 13.0001 16.87 13.0001 17C13.0001 17.26 12.8901 17.52 12.7101 17.71C12.5201 17.89 12.2601 18 12.0001 18Z" fill="#A0A6B1" stroke="#A0A6B1" stroke-width="0.2"/>
<path d="M15.4999 18C15.2399 18 14.9799 17.89 14.7899 17.71C14.6999 17.62 14.6299 17.51 14.5799 17.38C14.5299 17.26 14.4999 17.13 14.4999 17C14.4999 16.87 14.5299 16.74 14.5799 16.62C14.6299 16.49 14.6999 16.38 14.7899 16.29C15.0199 16.06 15.3699 15.95 15.6899 16.02C15.7599 16.03 15.8199 16.05 15.8799 16.08C15.9399 16.1 15.9999 16.13 16.0599 16.17C16.1099 16.2 16.1599 16.25 16.2099 16.29C16.3899 16.48 16.4999 16.74 16.4999 17C16.4999 17.26 16.3899 17.52 16.2099 17.71C16.0199 17.89 15.7599 18 15.4999 18Z" fill="#A0A6B1" stroke="#A0A6B1" stroke-width="0.2"/>
<path d="M20.5 9.83997H3.5C3.09 9.83997 2.75 9.49997 2.75 9.08997C2.75 8.67997 3.09 8.33997 3.5 8.33997H20.5C20.91 8.33997 21.25 8.67997 21.25 9.08997C21.25 9.49997 20.91 9.83997 20.5 9.83997Z" fill="#A0A6B1" stroke="#A0A6B1" stroke-width="0.2"/>
<path d="M15.9999 22.75H7.99994C4.34994 22.75 2.24994 20.65 2.24994 17V8.5C2.24994 4.85 4.34994 2.75 7.99994 2.75H15.9999C19.6499 2.75 21.7499 4.85 21.7499 8.5V17C21.7499 20.65 19.6499 22.75 15.9999 22.75ZM7.99994 4.25C5.13994 4.25 3.74994 5.64 3.74994 8.5V17C3.74994 19.86 5.13994 21.25 7.99994 21.25H15.9999C18.8599 21.25 20.2499 19.86 20.2499 17V8.5C20.2499 5.64 18.8599 4.25 15.9999 4.25H7.99994Z" fill="#A0A6B1" stroke="#A0A6B1" stroke-width="0.2"/>
</svg>
