<svg width="24" height="24" viewBox="0 0 24 24" fill="none" xmlns="http://www.w3.org/2000/svg">
<path d="M19.7699 11.25H15.7299C13.7199 11.25 12.7499 10.36 12.7499 8.52V3.98C12.7499 2.14 13.7299 1.25 15.7299 1.25H19.7699C21.7799 1.25 22.7499 2.14 22.7499 3.98V8.51C22.7499 10.36 21.7699 11.25 19.7699 11.25ZM15.7299 2.75C14.3899 2.75 14.2499 3.13 14.2499 3.98V8.51C14.2499 9.37 14.3899 9.74 15.7299 9.74H19.7699C21.1099 9.74 21.2499 9.36 21.2499 8.51V3.98C21.2499 3.12 21.1099 2.75 19.7699 2.75H15.7299Z" fill="#A0A6B1" stroke="#A0A6B1" stroke-width="0.402968"/>
<path d="M19.7699 22.75H15.7299C13.7199 22.75 12.7499 21.77 12.7499 19.77V15.73C12.7499 13.72 13.7299 12.75 15.7299 12.75H19.7699C21.7799 12.75 22.7499 13.73 22.7499 15.73V19.77C22.7499 21.77 21.7699 22.75 19.7699 22.75ZM15.7299 14.25C14.5499 14.25 14.2499 14.55 14.2499 15.73V19.77C14.2499 20.95 14.5499 21.25 15.7299 21.25H19.7699C20.9499 21.25 21.2499 20.95 21.2499 19.77V15.73C21.2499 14.55 20.9499 14.25 19.7699 14.25H15.7299Z" fill="#A0A6B1" stroke="#A0A6B1" stroke-width="0.402968"/>
<path d="M8.27 11.25H4.23C2.22 11.25 1.25 10.36 1.25 8.52V3.98C1.25 2.14 2.23 1.25 4.23 1.25H8.27C10.28 1.25 11.25 2.14 11.25 3.98V8.51C11.25 10.36 10.27 11.25 8.27 11.25ZM4.23 2.75C2.89 2.75 2.75 3.13 2.75 3.98V8.51C2.75 9.37 2.89 9.74 4.23 9.74H8.27C9.61 9.74 9.75 9.36 9.75 8.51V3.98C9.75 3.12 9.61 2.75 8.27 2.75H4.23Z" fill="#A0A6B1" stroke="#A0A6B1" stroke-width="0.402968"/>
<path d="M8.27 22.75H4.23C2.22 22.75 1.25 21.77 1.25 19.77V15.73C1.25 13.72 2.23 12.75 4.23 12.75H8.27C10.28 12.75 11.25 13.73 11.25 15.73V19.77C11.25 21.77 10.27 22.75 8.27 22.75ZM4.23 14.25C3.05 14.25 2.75 14.55 2.75 15.73V19.77C2.75 20.95 3.05 21.25 4.23 21.25H8.27C9.45 21.25 9.75 20.95 9.75 19.77V15.73C9.75 14.55 9.45 14.25 8.27 14.25H4.23Z" fill="#A0A6B1" stroke="#A0A6B1" stroke-width="0.402968"/>
</svg>
