<svg width="9" height="10" viewBox="0 0 9 10" fill="none" xmlns="http://www.w3.org/2000/svg">
<path d="M7.18164 3.76356C6.81594 2.15449 5.41236 1.43005 4.17943 1.43005C4.17943 1.43005 4.17943 1.43005 4.17595 1.43005C2.9465 1.43005 1.53943 2.151 1.17373 3.76008C0.766241 5.55722 1.86682 7.07923 2.86291 8.03701C3.2321 8.39226 3.70576 8.56989 4.17943 8.56989C4.6531 8.56989 5.12676 8.39226 5.49246 8.03701C6.48856 7.07923 7.58913 5.56071 7.18164 3.76356ZM4.17943 5.50847C3.57341 5.50847 3.08233 5.01738 3.08233 4.41137C3.08233 3.80535 3.57341 3.31427 4.17943 3.31427C4.78544 3.31427 5.27653 3.80535 5.27653 4.41137C5.27653 5.01738 4.78544 5.50847 4.17943 5.50847Z" fill="#39BA62" stroke="#39BA62" stroke-width="0.191557"/>
</svg>
