<svg width="24" height="24" viewBox="0 0 24 24" fill="none" xmlns="http://www.w3.org/2000/svg">
<path d="M17.5599 17.97H6.43994C2.45994 17.97 1.24994 16.76 1.24994 12.78V6.44C1.24994 2.46 2.45994 1.25 6.43994 1.25H7.99994C8.40994 1.25 8.74994 1.59 8.74994 2C8.74994 2.41 8.40994 2.75 7.99994 2.75H6.43994C3.29994 2.75 2.74994 3.3 2.74994 6.44V12.77C2.74994 15.91 3.29994 16.46 6.43994 16.46H17.5499C20.6899 16.46 21.2399 15.91 21.2399 12.77V11.88C21.2399 11.47 21.5799 11.13 21.9899 11.13C22.3999 11.13 22.7399 11.47 22.7399 11.88V12.77C22.7499 16.76 21.5399 17.97 17.5599 17.97Z" fill="#A0A6B1" stroke="#A0A6B1" stroke-width="0.301099"/>
<path d="M12 22.75C11.59 22.75 11.25 22.41 11.25 22V17.22C11.25 16.81 11.59 16.47 12 16.47C12.41 16.47 12.75 16.81 12.75 17.22V22C12.75 22.41 12.41 22.75 12 22.75Z" fill="#A0A6B1" stroke="#A0A6B1" stroke-width="0.301099"/>
<path d="M21.9999 13.75H1.99994C1.58994 13.75 1.24994 13.41 1.24994 13C1.24994 12.59 1.58994 12.25 1.99994 12.25H21.9999C22.4099 12.25 22.7499 12.59 22.7499 13C22.7499 13.41 22.4099 13.75 21.9999 13.75Z" fill="#A0A6B1" stroke="#A0A6B1" stroke-width="0.301099"/>
<path d="M16.5 22.75H7.5C7.09 22.75 6.75 22.41 6.75 22C6.75 21.59 7.09 21.25 7.5 21.25H16.5C16.91 21.25 17.25 21.59 17.25 22C17.25 22.41 16.91 22.75 16.5 22.75Z" fill="#A0A6B1" stroke="#A0A6B1" stroke-width="0.301099"/>
<path d="M17.86 10.12H13.0999C11.5299 10.12 10.5099 9.10001 10.5099 7.53001V4.01001C10.5099 2.49001 11.7399 1.26001 13.2599 1.26001H17.86C19.29 1.26001 20.45 2.42001 20.45 3.85001V7.53001C20.45 8.96001 19.29 10.12 17.86 10.12ZM13.2599 2.76001C12.5699 2.76001 12.0099 3.32001 12.0099 4.01001V7.53001C12.0099 8.51001 12.6299 8.62001 13.0999 8.62001H17.86C18.4599 8.62001 18.95 8.13001 18.95 7.53001V3.85001C18.95 3.25001 18.4599 2.76001 17.86 2.76001H13.2599Z" fill="#A0A6B1" stroke="#A0A6B1" stroke-width="0.301099"/>
<path d="M21.4501 8.87001C21.1301 8.87001 20.8001 8.76001 20.4801 8.53001L19.2701 7.68001C19.0701 7.54001 18.9501 7.31001 18.9501 7.07001V4.31001C18.9501 4.07001 19.0701 3.84001 19.2701 3.70001L20.4801 2.85001C21.0001 2.48001 21.5601 2.41001 22.0201 2.65001C22.4801 2.89001 22.7401 3.39001 22.7401 4.03001V7.36001C22.7401 8.00001 22.4801 8.50001 22.0201 8.74001C21.8501 8.83001 21.6601 8.87001 21.4501 8.87001ZM20.4501 6.68001L21.2501 7.24001V4.14001L20.4501 4.70001V6.68001Z" fill="#A0A6B1" stroke="#A0A6B1" stroke-width="0.301099"/>
</svg>
