<svg width="28" height="28" viewBox="0 0 28 28" fill="none" xmlns="http://www.w3.org/2000/svg">
<path d="M14.5061 25.8249C14.3191 25.8249 14.1321 25.8249 13.9451 25.8139C7.78506 25.5389 2.63706 20.5779 2.20806 14.5279C1.83406 9.33591 4.83706 4.48491 9.67706 2.44991C11.0521 1.87791 11.7781 2.31791 12.0861 2.63691C12.3941 2.94491 12.8231 3.65991 12.2511 4.96891C11.7451 6.13491 11.4921 7.37791 11.5031 8.65391C11.5251 13.5269 15.5731 17.6629 20.5121 17.8609C21.2271 17.8939 21.9311 17.8389 22.6131 17.7179C24.0651 17.4539 24.6701 18.0369 24.9011 18.4109C25.1321 18.7849 25.3961 19.5879 24.5161 20.7759C22.1841 23.9659 18.4771 25.8249 14.5061 25.8249ZM3.84706 14.4069C4.22106 19.6429 8.68706 23.9329 14.0111 24.1639C17.6301 24.3399 21.0621 22.6899 23.1741 19.8079C23.3391 19.5769 23.4161 19.4119 23.4491 19.3239C23.3501 19.3129 23.1741 19.3019 22.8991 19.3569C22.0961 19.4999 21.2601 19.5549 20.4351 19.5219C14.6271 19.2909 9.87506 14.4179 9.84206 8.67591C9.84206 7.15791 10.1391 5.69491 10.7441 4.31991C10.8541 4.07791 10.8761 3.91291 10.8871 3.82491C10.7881 3.82491 10.6121 3.84691 10.3261 3.96791C6.13506 5.72791 3.53906 9.92991 3.84706 14.4069Z" fill="#6A35FF"/>
</svg>
