<svg width="28" height="28" viewBox="0 0 28 28" fill="none" xmlns="http://www.w3.org/2000/svg">
<path d="M14.022 23.3829C11.459 23.3829 8.89603 22.9759 6.46503 22.1619C5.54103 21.8429 4.83703 21.1939 4.52903 20.3469C4.21003 19.4999 4.32003 18.5649 4.82603 17.7289L6.09103 15.6279C6.35503 15.1879 6.59703 14.3079 6.59703 13.7909V10.6119C6.59703 6.5199 9.93003 3.1869 14.022 3.1869C18.114 3.1869 21.447 6.5199 21.447 10.6119V13.7909C21.447 14.2969 21.689 15.1879 21.953 15.6389L23.207 17.7289C23.68 18.5209 23.768 19.4779 23.449 20.3469C23.13 21.2159 22.437 21.8759 21.568 22.1619C19.148 22.9759 16.585 23.3829 14.022 23.3829ZM14.022 4.8369C10.843 4.8369 8.24703 7.4219 8.24703 10.6119V13.7909C8.24703 14.5939 7.91703 15.7819 7.51003 16.4749L6.24503 18.5759C6.00303 18.9829 5.93703 19.4119 6.08003 19.7749C6.21203 20.1489 6.54203 20.4349 6.99303 20.5889C11.591 22.1289 16.464 22.1289 21.062 20.5889C21.458 20.4569 21.766 20.1599 21.909 19.7639C22.052 19.3679 22.019 18.9389 21.799 18.5759L20.534 16.4749C20.116 15.7599 19.797 14.5829 19.797 13.7799V10.6119C19.797 7.4219 17.212 4.8369 14.022 4.8369Z" fill="#6A35FF"/>
<path d="M16.0681 5.1339C15.9911 5.1339 15.9141 5.1229 15.8371 5.1009C15.5181 5.0129 15.2101 4.9469 14.9131 4.9029C13.9781 4.7819 13.0761 4.8479 12.2291 5.1009C11.9211 5.1999 11.5911 5.1009 11.3821 4.8699C11.1731 4.6389 11.1071 4.3089 11.2281 4.0119C11.6791 2.8569 12.7791 2.0979 14.0331 2.0979C15.2871 2.0979 16.3871 2.8459 16.8381 4.0119C16.9481 4.3089 16.8931 4.6389 16.6841 4.8699C16.5191 5.0459 16.2881 5.1339 16.0681 5.1339Z" fill="#6A35FF"/>
<path d="M14.0221 25.8909C12.9331 25.8909 11.8771 25.4509 11.1071 24.6809C10.3371 23.9109 9.89706 22.8549 9.89706 21.7659H11.5471C11.5471 22.4149 11.8111 23.0529 12.2731 23.5149C12.7351 23.9769 13.3731 24.2409 14.0221 24.2409C15.3861 24.2409 16.4971 23.1299 16.4971 21.7659H18.1471C18.1471 24.0429 16.2991 25.8909 14.0221 25.8909Z" fill="#6A35FF"/>
</svg>
