<svg width="21" height="21" viewBox="0 0 21 21" fill="none" xmlns="http://www.w3.org/2000/svg">
<path d="M13.2046 3.3979H8.40343C8.07117 3.3979 7.80536 3.13209 7.80536 2.79983C7.80536 2.46757 8.07117 2.19345 8.40343 2.19345H13.2046C13.5369 2.19345 13.8027 2.45926 13.8027 2.79152C13.8027 3.12379 13.5369 3.3979 13.2046 3.3979Z" fill="#F56C22"/>
<path d="M17.4244 12.992H14.9823C13.9273 12.992 13.296 13.6233 13.296 14.6782V17.1203C13.296 18.1753 13.9273 18.8066 14.9823 18.8066H17.4244C18.4793 18.8066 19.1106 18.1753 19.1106 17.1203V14.6782C19.1106 13.6233 18.4793 12.992 17.4244 12.992ZM17.1918 16.6967L16.2116 17.2615C16.0123 17.3778 15.8129 17.436 15.6302 17.436C15.489 17.436 15.3644 17.4028 15.2481 17.3363C14.9823 17.1785 14.8327 16.8711 14.8327 16.4641V15.3344C14.8327 14.9274 14.9823 14.6201 15.2481 14.4622C15.5139 14.3044 15.8544 14.3376 16.2116 14.537L17.1918 15.1018C17.5407 15.3095 17.74 15.5919 17.74 15.8993C17.74 16.2066 17.549 16.489 17.1918 16.6967Z" fill="#F56C22"/>
<path d="M12.4654 17.1203V14.6782C12.4654 13.1747 13.4788 12.1613 14.9823 12.1613H17.4244C17.6155 12.1613 17.7982 12.1779 17.9726 12.2112C17.9892 12.0118 18.0059 11.8124 18.0059 11.6048C18.0059 7.62593 14.7746 4.39468 10.8041 4.39468C6.83354 4.39468 3.60229 7.62593 3.60229 11.6048C3.60229 15.5753 6.83354 18.8066 10.8041 18.8066C11.5101 18.8066 12.183 18.6903 12.8309 18.5075C12.5983 18.1171 12.4654 17.6519 12.4654 17.1203ZM11.4271 11.3307C11.4271 11.6712 11.1446 11.9536 10.8041 11.9536C10.4635 11.9536 10.1811 11.6712 10.1811 11.3307V7.17738C10.1811 6.83681 10.4635 6.55439 10.8041 6.55439C11.1446 6.55439 11.4271 6.83681 11.4271 7.17738V11.3307Z" fill="#F56C22"/>
</svg>
